<svg xmlns="http://www.w3.org/2000/svg" width="35" height="32" viewBox="0 0 35 32">
  <metadata><?xpacket begin="﻿" id="W5M0MpCehiHzreSzNTczkc9d"?>
<x:xmpmeta xmlns:x="adobe:ns:meta/" x:xmptk="Adobe XMP Core 5.6-c138 79.159824, 2016/09/14-01:09:01        ">
   <rdf:RDF xmlns:rdf="http://www.w3.org/1999/02/22-rdf-syntax-ns#">
      <rdf:Description rdf:about=""/>
   </rdf:RDF>
</x:xmpmeta>
                                                                                                    
                                                                                                    
                                                                                                    
                                                                                                    
                                                                                                    
                                                                                                    
                                                                                                    
                                                                                                    
                                                                                                    
                                                                                                    
                                                                                                    
                                                                                                    
                                                                                                    
                                                                                                    
                                                                                                    
                                                                                                    
                                                                                                    
                                                                                                    
                                                                                                    
                                                                                                    
                           
<?xpacket end="w"?></metadata>
<defs>
    <style>
      .cls-1, .cls-2, .cls-3 {
        fill: #fff;
        fill-rule: evenodd;
      }

      .cls-1 {
        opacity: 0.3;
      }

      .cls-2 {
        opacity: 0.5;
      }

      .cls-3 {
        opacity: 0.7;
      }
    </style>
  </defs>
  <path id="Forma_1_копия_5" data-name="Forma 1 копия 5" class="cls-1" d="M1157.04,796.863l-14.3-14.391a1.6,1.6,0,0,0-2.27,0,1.616,1.616,0,0,0,0,2.284l13.16,13.249-13.16,13.249a1.618,1.618,0,0,0,0,2.285,1.6,1.6,0,0,0,2.27,0l14.3-14.391A1.636,1.636,0,0,0,1157.04,796.863Z" transform="translate(-1140 -782)"/>
  <path id="Forma_1_копия_4" data-name="Forma 1 копия 4" class="cls-2" d="M1165.79,796.863l-14.29-14.391a1.611,1.611,0,0,0-2.28,0,1.635,1.635,0,0,0,0,2.284l13.17,13.249-13.16,13.249a1.618,1.618,0,0,0,0,2.285,1.6,1.6,0,0,0,2.27,0l14.29-14.391A1.636,1.636,0,0,0,1165.79,796.863Z" transform="translate(-1140 -782)"/>
  <path id="Forma_1_копия_3" data-name="Forma 1 копия 3" class="cls-3" d="M1174.54,796.863l-14.29-14.391a1.6,1.6,0,0,0-2.27,0,1.616,1.616,0,0,0,0,2.284l13.16,13.249-13.16,13.249a1.618,1.618,0,0,0,0,2.285,1.6,1.6,0,0,0,2.27,0l14.3-14.391A1.646,1.646,0,0,0,1174.54,796.863Z" transform="translate(-1140 -782)"/>
</svg>
